<?xml version="1.0" encoding="UTF-8" standalone="no"?>
<!-- Created with Inkscape (http://www.inkscape.org/) -->

<svg
   xmlns:dc="http://purl.org/dc/elements/1.1/"
   xmlns:cc="http://creativecommons.org/ns#"
   xmlns:rdf="http://www.w3.org/1999/02/22-rdf-syntax-ns#"
   xmlns:svg="http://www.w3.org/2000/svg"
   xmlns="http://www.w3.org/2000/svg"
   xmlns:sodipodi="http://sodipodi.sourceforge.net/DTD/sodipodi-0.dtd"
   xmlns:inkscape="http://www.inkscape.org/namespaces/inkscape"
   id="svg4136"
   version="1.1"
   inkscape:version="0.91 r13725"
   xml:space="preserve"
   width="86.25"
   height="45"
   viewBox="0 0 86.25 45"
   sodipodi:docname="ils-logo.svg"><metadata
     id="metadata4142"><rdf:RDF><cc:Work
         rdf:about=""><dc:format>image/svg+xml</dc:format><dc:type
           rdf:resource="http://purl.org/dc/dcmitype/StillImage" /><dc:title></dc:title></cc:Work></rdf:RDF></metadata><defs
     id="defs4140"><clipPath
       clipPathUnits="userSpaceOnUse"
       id="clipPath4152"><path
         d="M 0,355.652 0,0 l 686.926,0 0,355.652 -686.926,0 z"
         id="path4154"
         inkscape:connector-curvature="0" /></clipPath></defs><sodipodi:namedview
     pagecolor="#ffffff"
     bordercolor="#666666"
     borderopacity="1"
     objecttolerance="10"
     gridtolerance="10"
     guidetolerance="10"
     inkscape:pageopacity="0"
     inkscape:pageshadow="2"
     inkscape:window-width="1517"
     inkscape:window-height="826"
     id="namedview4138"
     showgrid="false"
     inkscape:zoom="7.6695652"
     inkscape:cx="35.539667"
     inkscape:cy="19.561141"
     inkscape:window-x="52"
     inkscape:window-y="52"
     inkscape:window-maximized="0"
     inkscape:current-layer="g4144" /><g
     id="g4144"
     inkscape:groupmode="layer"
     inkscape:label="ils-logo"
     transform="matrix(1.25,0,0,-1.25,0,45)"><path
       inkscape:connector-curvature="0"
       id="path4156"
       style="fill:#5885c4;fill-opacity:1;fill-rule:evenodd;stroke:none"
       d="m 0,34.8609 4.56016,0 0,-10.9851 -4.56016,0 0,10.9851" /><path
       inkscape:connector-curvature="0"
       id="path4158"
       style="fill:#9ccaeb;fill-opacity:1;fill-rule:evenodd;stroke:none"
       d="m 9.35977,34.8609 4.56013,0 0,-18.905 -4.56013,0 0,18.905" /><path
       inkscape:connector-curvature="0"
       id="path4160"
       style="fill:#ccd7db;fill-opacity:1;fill-rule:evenodd;stroke:none"
       d="m 18.7195,34.8609 4.5602,0 0,-27.78473 -4.5602,0 0,27.78473" /><path
       inkscape:connector-curvature="0"
       id="path4162"
       style="fill:#294f8e;fill-opacity:1;fill-rule:evenodd;stroke:none"
       d="m 0,19.5562 0,-19.440184 22.5602,0 L 0,19.5562 l 0,0" /><path
       inkscape:connector-curvature="0"
       id="path4164"
       style="fill:#0b0c0b;fill-opacity:1;fill-rule:nonzero;stroke:none"
       d="m 57.3621,3.69805 c 1.9621,0 3.5188,0.16523 4.6567,1.23242 1.1382,1.06758 1.7097,2.34883 1.7097,3.83711 0,1.12695 -0.2988,2.16682 -0.8973,3.12112 -0.6078,0.9375 -2.1203,2.0801 -4.516,3.4343 l -2.3632,1.3633 c -3.159,1.7809 -5.279,3.4117 -6.3668,4.8938 -1.0793,1.473 -1.6223,3.1117 -1.6223,4.9164 0,1.6152 0.4324,3.1281 1.2922,4.5465 0.8582,1.4179 2.0086,2.5215 3.459,3.3246 1.4492,0.7961 3.2695,1.1976 5.4675,1.1976 2.6551,0 5.4454,-0.4406 8.3914,-1.3156 l 0,-4.4363 c -2.5601,1.0008 -4.3171,1.6074 -5.271,1.8125 -0.9536,0.2125 -1.9067,0.3152 -2.8528,0.3152 -1.9851,0 -3.4582,-0.5125 -4.4121,-1.5445 -0.9531,-1.0317 -1.4336,-2.0879 -1.4336,-3.1598 0,-0.7402 0.2285,-1.489 0.6777,-2.2531 0.4493,-0.7645 1.0633,-1.4184 1.8196,-1.9621 0.7644,-0.5434 1.8125,-1.1973 3.1441,-1.9461 l 2.466,-1.3863 c 3.1836,-1.8047 5.3106,-3.452 6.3821,-4.9411 1.064,-1.505 1.5996,-3.2382 1.5996,-5.19253 0,-2.66289 -1.0149,-4.97344 -3.0488,-6.92539 C 63.6047,0.674609 60.6902,0 56.7273,0 l -18.2039,0 0,34.8609 4.9446,0 0,-31.16285 13.8941,0 0,0" /><path
       inkscape:connector-curvature="0"
       id="path4166"
       style="fill:#100f0d;fill-opacity:1;fill-rule:nonzero;stroke:none"
       d="m 29.559,0 0,34.8609 4.9449,0 0,-34.8609 -4.9449,0 0,0" /></g></svg>